<svg version="1.2" xmlns="http://www.w3.org/2000/svg" viewBox="0 0 3316 982" width="3316" height="982"><defs><clipPath clipPathUnits="userSpaceOnUse" id="cp1"><path d="m0 0h3316v982h-3316z"/></clipPath></defs><style>.a{fill:#686868}.b{fill:#b31641}.c{fill:#b4163f}.d{fill:#b31640}</style><g clip-path="url(#cp1)"><path fill-rule="evenodd" class="a" d="m3316.1 705.5c-0.7-2.5-1.7-4.8-2.1-7.3-10-63.2-49.7-100.4-113.7-106.5-53.8-5.2-101.6 23.1-123.4 72.5-13.6 31-16 63.5-11.9 96.3 5.5 44.6 24.2 82.1 67.1 102.1 40.7 19 82.7 18.9 124.2 2 21.8-9 39.2-24 51.4-45.1-6.4-5.6-12.1-10.7-17.9-15.8-5.7-5-11.5-10-17.2-15-36.7 40.4-76.9 51.4-114.8 32.1-26-13.2-40.9-43.9-34.6-72.8 4.1 0 8.5 0 12.8 0q90.1-0.3 180.1-0.5zm-194.5 5.1c-0.4-26.4 7.9-48.5 29.6-63.1 23.9-16 50.1-17.2 75.2-3 24.8 14.1 31.3 38.1 30.9 66.1zm-1417.1-155.9c-34 0-42.7 8.2-45.3 42.3-0.1 0.6-0.7 1.2-1.4 2.2-3.3-0.9-6.8-1.9-10.3-2.8-33.2-8.2-65.8-7.5-97.1 7.1-32.7 15.2-50.1 41.4-52.2 77.2-2.1 36.8 11.4 66.2 43.9 85.5 2.5 1.5 4.9 3.4 8.2 5.7-21.2 8.4-43.6 12.9-48.4 38.6-4.8 25.2 9.9 39.4 32.9 51.2-7.6 2.7-11.7 4-15.6 5.6-20.3 8.1-34.2 21.2-35.2 44.7-1.4 30.6 13.7 50.5 47 60.5 32.6 9.8 66.1 10.3 99.6 8.9 28.4-1.2 56.6-4.4 82.6-17.3 24-11.9 37.8-31 39.5-58.1 2.6-42.4-22.6-73.9-66.4-78.6-30.6-3.3-61.7-2.1-92.6-3.4-11.3-0.4-22.8-1.1-33.9-3.4-12.6-2.7-16.8-14.6-10.4-25.8 5-8.6 21.1-15.2 31.2-15 20.5 0.3 41.4 1.7 61.4-1.8 36.8-6.4 64.1-27 73.6-64.5 9.5-37.6 2.7-71.6-28.7-98.1-3.4-2.9-3.7-9.4-6.2-16.2h64.4v-44.5c-14.2 0-27.4 0-40.6 0zm-64.3 180.7c-21.6 10.3-44.1 9.6-66-1.2-26.8-13.3-27-82.2 0.3-95.1 23.1-10.9 46.6-12.1 68.8 0.7 17.8 10.3 20.1 28.8 19.2 47.3 0.8 20.2-2.7 39-22.3 48.3zm33 140.1c15.8 2 23.8 11.1 25.5 23.6 1.8 13.5-4.4 25.9-18 32.4-7.8 3.8-16.6 7.4-25.1 7.7-27.9 1-56 1.7-83.8 0.2-25.8-1.4-41.4-21.5-36.8-43.7 3-14.5 13.1-22.8 27.9-22.8 16.2 0 32.4 0 48.7 0q0-0.5 0-1c20.6 1.1 41.3 1.1 61.6 3.6z"/><path class="b" d="m865.5 368.6v-367.5c3.6-0.2 6.8-0.6 10-0.6 40.1 0 80.3-0.4 120.5 0.2 12 0.2 24.4 1.8 35.9 5 54.6 15.1 82.6 80 57 130.8-8.2 16.2-21.6 26.7-37.8 34.1-3.6 1.6-7.4 3-12.3 5.1 2.2 1.6 3.3 2.8 4.7 3.3 47.9 15.5 68.2 42.7 66.4 88.9-1.9 49.8-30.1 86.7-74.8 97.2-9.7 2.2-19.7 3.6-29.5 3.7-44.6 0.4-89.2 0.2-133.8 0.2-1.8 0-3.6-0.2-6.3-0.4zm57.7-45.9c26.4 0 51.8 1.6 77-0.4 34.9-2.8 48.5-19.3 48.7-54.1 0-6.6 0.1-13.3-0.2-19.9-0.8-22.5-11.4-36.6-33.3-42.4-9.4-2.5-19.5-3.6-29.3-3.9-20.9-0.6-41.7-0.2-62.9-0.2zm0.1-277.8v114.9c26.8-1.3 53.3-0.7 79.3-4.3 23-3.1 32.4-16.6 33.4-39.8 0.4-9.5 0.4-19.1-0.1-28.6-1.3-21.4-10.6-34.8-31.8-37.7-26.3-3.5-53.2-3.1-80.8-4.5z"/><path class="c" d="m865 869.7v-367.8c5.8 0 11.2 0 16.6 0 31 0 62-0.2 92.9 0.1 68.4 0.5 109.9 31.8 127.4 98.1 15.7 59.2 15.6 119-1.8 177.8-17.6 59.7-55.8 89.2-117.7 91.5-38.6 1.4-77.3 0.3-117.4 0.3zm58.2-48.6c15.3 0 29.6 0.1 43.9 0 45.7-0.3 73.2-21 78.7-66.5 4.5-37.7 3.1-76.3 3.3-114.4 0-11.6-2.4-23.5-5.6-34.8-6.6-23.3-19.5-42.1-43.7-50.2-25.1-8.4-50.8-3.1-76.6-4.7z"/><path fill-rule="evenodd" class="a" d="m1339.2 211.2c0-10.5 0.5-19-0.1-27.4-2.1-30-19.5-46.8-49.7-48.5-34.3-1.9-47 3.9-79.1 36.5-10.9-8.9-21.9-17.9-33.3-27.2 12.7-23 31.8-37.8 55.2-45.9 33.9-11.8 68.8-12.2 103.1-1.3 37.6 12 59.4 38.3 61 77.9 1.7 44.5 0.7 89.1 0.9 133.6 0 4.4 0 8.7 0 14h33.4v47.4c-18.9-1.6-37.6-1.9-55.7-5.2-15.5-2.8-23.5-15.5-28.3-29.8-1.2-3.7-2.2-7.5-3.3-11.4-1.2 0.5-2.2 0.6-2.3 1-20.9 64.1-117.1 59.1-149.9 26.6-38.6-38.1-26.9-107 22.9-128.3 25-10.6 51.5-11.5 78.1-12 15.3-0.3 30.7 0 47.1 0zm-0.8 38c-21.8 0-43.4-0.5-64.9 0.2-8.3 0.3-16.8 2.5-24.6 5.4-17.1 6.3-22.6 16.7-22.2 38.5 0.3 19.3 7 30.4 23.8 35.4 23 6.7 45.8 5.7 67.2-6.3 10.3-5.7 19.3-13.8 20.4-25.9 1.4-15.6 0.3-31.3 0.3-47.3zm1321.8 575.7h33.9v45.9c-18.2-1.1-36.2-0.8-53.7-3.6-17.4-2.8-26.1-16.5-31.3-32.3-1-3.1-1.7-6.2-2.9-11-1.6 2.3-2.6 3.2-3 4.3-10.6 26.8-30.8 42-58.6 46.2-30.2 4.5-59.2 1.8-85.2-17.2-36.3-26.6-43.7-107.2 16.6-132.1 22.2-9.2 45.5-11.7 69.1-12.4 18.7-0.6 37.4-0.2 58.1-0.2-0.9-14-0.4-26.9-2.9-39.2-4.4-21.8-20.7-34.2-44.3-36.3-31.9-2.9-59 5.4-78.4 32.5-0.8 1.2-1.6 2.5-3 4.5-12-9.8-23-18.7-34.5-28.1 12.1-21.8 30-36.1 52.1-44.4 36.8-14 74.5-14.4 111.3-1.1 34.7 12.7 54.6 38.8 55.8 76 1.4 44.1 0.7 88.3 0.9 132.4 0 4.8 0 9.5 0 16.1zm-58.1-74.7c-22.1 0-43-0.7-63.9 0.3-9.3 0.4-18.9 2.9-27.7 6.3-17.5 6.7-21.7 21.3-21 38.5 0.8 18 7 28.7 22.7 34 23.7 8.1 47.1 6.5 69.2-5.8 11.3-6.3 19.9-15.7 20.5-29.4 0.7-14.3 0.2-28.6 0.2-43.9z"/><path class="a" d="m2052.9 247.1h-192.9c-5.9 29.2 8.8 59.2 34.5 72.3 38 19.5 77.8 8.6 115-32.3 11.4 10.2 22.9 20.4 35 31.2-14.5 24-35 40.1-60.8 48.7-34.2 11.4-69 11.4-103-0.5-37.4-13.1-61.1-40.2-72.6-77.7-11.2-36.4-11.3-73.4-0.3-109.9 17.6-58.5 64.6-91.3 125.7-88.6 70.4 3.1 115.5 50.8 119.3 126.2 0.5 9.5 0.1 19.1 0.1 30.6zm-59.1-37.9c1.2-26.1-4.9-49-27.3-63.8-24.6-16.4-51.3-15.8-76.2-0.7-23.3 14.1-32.4 36.8-31.7 64.5z"/><path class="c" d="m74 801.9h514.6v66.1h-514.6z"/><path fill-rule="evenodd" class="a" d="m2246.4 597.3h115.4v47.5h-114.6v177.9h114.7v45.6c-1.3 0.6-2.3 1.4-3.3 1.4-36.8-0.1-73.7 0.6-110.5-0.6-32.9-1.2-54.5-21.7-57.7-54.3-2.1-21.5-1.5-43.4-1.6-65.1-0.3-30.5-0.1-61.1-0.1-91.7 0-3.9 0-7.8 0-12.9-24.8 0-48.3-0.4-71.7 0.2-9.1 0.2-12.6-2.3-12-11.7 0.7-11.6 0.2-23.3 0.2-36.2 20.2 0 38.9 0.1 57.6 0 23.9-0.1 29.8-6.1 29.9-30.3 0-21.3 0-42.5 0-64.5h53.7zm598.2 225.5v-296h-88.4v-46.2h146.4v341.9h89.8v46.6h-237.1c0-12.4-0.1-24.1 0-35.8 0-3.3 0.4-6.5 0.7-10.5zm-1325.6-531.8c18.9 19.4 39.8 34.4 66 37.1 18.8 2 38 0.2 56.9-0.8 5.2-0.3 10.5-3.4 15.3-6 12.8-6.8 17.8-18.1 16.8-32.2-0.9-14.1-9.8-22.5-22.5-25.3-21.2-4.7-42.8-7-64-11.7-17.1-3.8-34.6-7.8-50.4-15-54.1-24.7-45.3-99.9-8.2-124.3 25.4-16.6 53.3-22.1 82.8-22.6 37.5-0.6 72.5 6.7 102.4 30.9 4.2 3.4 8 7.3 12.6 11.6-10.9 11.6-21.2 22.4-31.9 33.7-16-15-33.2-27.9-54.8-29.7-19.2-1.6-38.9-1-58 1.5-14.3 2-24.2 12-26.1 27.7-1.9 15.4 3.6 26.9 18.6 30.8 22.7 5.9 46.1 9.1 69.1 13.8 12.2 2.4 24.6 4.7 36.4 8.7 25.7 8.6 44.9 24.5 49.5 52.6 4.9 29.9-2.3 56.4-26.5 76.5-17.2 14.3-37.6 21.6-59.4 24.3-41.3 5-81.7 3-119.3-17.2-15.3-8.2-29.2-18.2-40.3-33 11.6-10.4 22.8-20.4 35-31.4zm-328.4 577.8v-45.6h91.2v-178.1h-91v-46.9h149.3v224.2h86v46.4z"/><path class="a" d="m1821.5 822.8h91.8v-177.4h-90.7v-47.2h149v224.3h86v47.4h-8.9c-71.9 0-143.7-0.1-215.6 0.2-9.1 0.1-12.4-2.4-11.7-11.7 0.7-11.3 0.1-22.7 0.1-35.6z"/><path fill-rule="evenodd" class="c" d="m237.2 428.9c0 15.2 0.2 28.8-0.1 42.3-0.1 2.9-1.6 6.5-3.6 8.6-37.4 37.5-74.9 74.8-114.4 114.2-15.3-15.6-30.6-31.3-47.3-48.3 8.8-8.4 16.6-15.5 24.1-22.9 28.9-28.9 57.8-57.7 86.5-86.7 5-5.1 9.9-7.7 17.2-7.4 12 0.6 24.1 0.2 37.6 0.2zm-165.4-306.8c16.4-16.3 32-31.8 47.6-47.3 39.2 39 76.7 76.3 114 113.9 2.1 2 3.6 5.6 3.7 8.5 0.3 13.6 0.1 27.2 0.1 42.4-15.4 0-30.3 0.2-45.1-0.1-2.2-0.1-4.6-2.3-6.3-4-37.3-37-74.5-74.1-114-113.4zm260.1 79.9c-11.3-11.6-21.4-21.6-31.2-32-1.5-1.7-2.4-4.6-2.4-7-0.1-53-0.1-105.9-0.1-160.7h66.3c0.2 3.6 0.6 6.4 0.6 9.3 0.1 48.9 0.3 97.9-0.2 146.8-0.1 5.1-3.1 11-6.4 15.1-8 9.6-16.9 18.3-26.6 28.5z"/><path class="d" d="m544.1 593.5c-39.7-39.3-77.3-76.6-114.9-114.1-1.9-1.9-3.6-5-3.7-7.5-0.3-13.9-0.1-27.8-0.1-42.9 15.7 0 30.3-0.2 44.9 0.1 2.2 0.1 4.8 1.9 6.5 3.6 37 37 73.9 74.1 110.8 111.1 0.5 0.5 0.6 1.3 3.1 4.2-15.4 15.1-30.9 30.2-46.6 45.5z"/><path fill-rule="evenodd" class="c" d="m301.7 497.8c-2 2.2-3.4 5.8-3.4 8.8q-0.3 76.2 0.1 152.4c0 2.6 2.5 7.4 4 7.4 20.7 0.5 41.4 0.3 62.7 0.3 0-55 0.1-108-0.1-160.9 0-2.4-0.9-5.3-2.5-6.9-9.7-10.5-19.7-20.7-30.6-32.1-11.3 11.5-21 21-30.2 31zm199.9-196.8c-2 0-4.5 0.8-5.9 2.2-10.6 9.9-21.1 20.1-32.6 31.2 10.2 9.6 19 17.4 27.1 26 4.9 5.2 10 7.4 17.2 7.3 47.9-0.3 95.8-0.1 143.7-0.2 3.9 0 7.8-0.3 12.4-0.5v-66.1c-55.1 0-108.5 0-161.9 0.1zm-501.6 66.6c52.9 0 104.1 0 155.3 0 1.9 0 3.7 0.2 5.5-0.1 2.1-0.4 4.6-0.7 6-2 10.8-9.8 21.4-19.9 32.9-30.7-10.8-10.5-19.4-19.6-28.8-27.7-3.8-3.2-9.4-5.9-14.2-5.9-41.3-0.5-82.6-0.3-123.9-0.3h-32.8zm539.5-289c-36.7 36.8-73.4 73.5-110 110.3-1.8 1.7-3.8 4.2-3.9 6.3-0.3 14.6-0.2 29.2-0.2 44.7 13.2 0 25-0.4 36.7 0.1 7.6 0.4 13.1-2 18.4-7.4 30.5-31 61.3-61.7 92-92.4 5.7-5.6 11.8-10.7 20-18.2-17.2-16.8-32.4-31.6-47.7-46.6-3.4 2.1-4.5 2.5-5.3 3.2z"/><path fill-rule="evenodd" class="a" d="m1943.7 475.1c38.5-1.4 43.5 25.9 36.5 53.3-4 15.6-20.6 22.2-44.3 19.9-19.4-1.9-29.7-10.7-32-27.4-4.3-31.3 8.5-45.9 39.8-45.8zm-631.6 0c40.1-1.3 43.2 27.9 36.6 53.4-4.1 15.8-23.1 22.9-46.6 19.5-19-2.7-28.7-12.2-29.9-29.3 0-0.8-0.1-1.5-0.1-2.2-1.1-30.5 9.7-41.6 40-41.4z"/></g></svg>