<svg width="114" height="34" viewBox="0 0 114 34" fill="none" xmlns="http://www.w3.org/2000/svg">
<g clip-path="url(#clip0_20_2463)">
<path d="M15.1956 23.2378C14.9263 23.5408 14.1857 23.6418 13.9501 23.9751C13.6471 24.48 12.9065 25.6212 12.3343 26.1564C10.4828 27.9372 6.50376 28.8091 4.51762 27.1293C4.38297 27.1293 4.4503 27.1966 4.61861 27.7016C4.75327 28.6071 5.49386 30.7582 5.22455 31.2935C5.42653 31.8994 5.59485 31.6974 5.93149 32.0307C6.16713 32.2663 6.26812 32.8689 6.53743 33.0036C6.8404 32.9699 7.14337 32.9699 7.41267 32.9362C7.48 33.1046 7.51366 33.2729 7.58099 33.4412C7.95129 33.4412 8.35525 33.3739 8.72554 33.3739C8.92752 33.4075 9.60079 33.7442 9.76911 33.8115C10.2067 33.7778 10.6107 33.7442 11.0483 33.7105C12.0246 33.9798 12.8661 33.5422 13.7111 33.0069C14.1824 32.704 14.6873 32.7376 15.0913 32.401C15.6972 31.896 16.4715 30.8895 16.8754 30.2196C17.7844 28.5398 17.4814 24.5103 16.6061 23.5374C16.3032 23.1671 15.9329 23.1671 15.1923 23.2345L15.1956 23.2378ZM22.945 22.1303C22.2717 22.6689 21.9687 22.5343 21.5648 23.3388C21.5311 23.3388 21.6321 23.4735 21.5648 23.4735C22.0024 24.278 22.9449 24.6147 23.6552 25.1869C23.8572 25.3553 24.4632 26.3618 24.7325 26.4628C25.0354 26.8331 25.2711 27.8733 25.4731 27.8733C25.7087 28.1762 25.4394 28.8461 25.675 29.1154C25.7087 30.324 25.5067 30.425 25.3048 30.6606C25.3048 30.7616 25.4394 30.9636 25.4394 31.0646C25.5067 31.1319 25.978 31.4685 26.2137 31.4349C26.8869 31.4685 29.617 33.5826 29.8527 33.9865C31.8085 34.1212 31.6705 33.5153 33.0204 32.9463C33.3907 32.778 33.66 32.9463 33.9293 32.677C34.1986 32.4077 34.1986 31.9061 34.4343 31.6705C34.4006 26.8028 27.7958 22.2683 22.945 22.1337V22.1303ZM28.2335 11.9236C25.8063 12.3275 24.3251 13.0984 23.3826 13.738C22.743 14.1756 22.5747 14.4753 22.44 14.6772C22.3053 14.8792 22.2044 15.2832 22.2717 15.7174C22.339 16.1517 22.5073 16.623 22.9113 16.8586C25.9107 16.623 31.0982 16.421 32.1081 18.939C32.1754 19.2756 32.2428 19.5113 32.2428 19.5786C33.219 19.3093 32.5121 19.4103 33.9596 19.6459C34.2962 19.7133 35.1042 19.5113 35.6428 19.3766C35.8784 19.3093 36.0467 19.1073 36.0467 19.1073C36.0467 19.1073 35.9794 18.8717 36.0131 18.737C36.0131 18.737 36.518 18.7707 36.7537 18.6024C38.1339 18.3667 37.3933 17.7305 38.0665 16.9899C37.6289 12.2905 32.8117 11.2133 28.2267 11.9202L28.2335 11.9236ZM9.73545 20.5178C10.2741 20.3832 11.183 20.2822 11.6576 20.0465C12.4319 19.6762 15.0273 17.8315 14.1857 16.3537C13.9164 13.2297 10.1428 15.8824 8.52356 14.7749C6.87406 14.5729 5.05287 11.4859 4.54792 10.1731C4.34594 9.66812 4.44693 9.83644 4.17762 9.43585C4.17762 9.40218 4.00931 9.5705 4.00931 9.53684C3.53802 10.1091 3.63901 10.577 3.53802 11.9202C3.30238 11.9202 3.1004 11.8865 2.89842 11.8865C2.86475 12.3915 2.79743 12.6574 2.56178 12.8931C2.52812 12.9604 2.46079 13.0614 2.42713 13.1287C2.02317 12.9941 2.22515 13.196 2.05683 12.8594C0.54198 12.9267 0.676634 14.4382 0 15.3101C0.0673267 18.1311 5.62515 21.5883 9.73881 20.5145L9.73545 20.5178ZM20.5515 5.20436C20.6861 4.1305 20.4842 2.58535 21.3594 1.84812C21.595 0.706935 23.3826 0.976242 23.1099 0.269312C22.9416 -0.168312 22.1 0.0336681 21.7634 0.134658C21.5277 0.201985 19.0669 0.972876 18.1244 1.07387C17.7204 0.972876 17.3164 0.838223 16.9125 0.737232C15.364 0.939213 14.4853 2.18139 13.6438 3.15426C12.9368 3.95882 11.9606 5.94159 12.7349 7.1501C12.7012 7.41941 12.6675 7.65505 12.6002 7.921L14.3507 10.4727C14.9566 10.9103 15.024 11.2099 15.6972 11.6475L16.1012 12.2535C16.6398 12.5901 18.1917 12.5901 18.461 12.3545C20.9891 12.5901 20.6861 7.48674 21.4941 6.41288C21.3594 5.94159 20.9554 5.44 20.5515 5.20436ZM80.1895 18.1984C78.944 17.7271 78.1663 17.3939 78.1663 16.7206C78.1663 15.3774 79.4119 15.2091 79.9168 15.2091C80.7921 15.2091 81.7346 15.4111 82.5796 15.7814L83.0845 16.017L83.4548 12.8594L83.1519 12.7584C82.1083 12.4218 80.9604 12.2535 79.7149 12.2535C78.7049 12.2535 77.2877 12.4218 76.1432 13.2937C75.0323 14.0982 74.46 15.3067 74.46 16.8855C74.46 19.7739 76.6178 20.6121 78.3683 21.2854C79.7149 21.824 80.5261 22.1572 80.5261 22.9988C80.5261 24.0054 79.2806 24.3756 78.4693 24.3756C77.5267 24.3756 76.5135 24.1063 75.5372 23.5711L74.9986 23.2681L74.6283 26.7254L75.2679 26.8937C76.4461 27.1966 77.1901 27.365 78.604 27.365C82.1083 27.365 84.2291 25.6515 84.2291 22.7665C84.2291 19.8816 81.903 18.8717 80.1861 18.1984H80.1895ZM92.2174 12.2232C87.7032 12.2232 85.0067 15.0442 85.0067 19.7436C85.0067 24.443 87.7032 27.3313 92.2174 27.3313C96.7317 27.3313 99.4281 24.4093 99.4281 19.7436C99.4281 15.0778 96.6644 12.2232 92.2174 12.2232ZM92.2174 24.3117C89.6556 24.3117 88.7467 21.9283 88.7467 19.7133C88.7467 17.6329 89.6556 15.2125 92.2174 15.2125C94.7792 15.2125 95.6881 17.6295 95.6881 19.7133C95.7218 21.9283 94.8129 24.3117 92.2174 24.3117ZM109.638 12.4588V21.5244L105.09 12.6608L104.989 12.4588H100.913V27.0654H104.383V17.9661L109.066 27.0654H113.109V12.4588H109.638ZM47.5428 12.1558C45.5533 12.1558 40.9044 12.9267 40.9044 19.8446C40.9044 24.4766 43.2642 27.2303 47.3745 27.1966C50.5758 27.1966 52.562 26.3584 53.9792 25.3149C53.8446 25.0792 52.6327 22.9315 52.4644 22.6958C51.6228 23.3657 50.2055 24.0054 48.3541 24.0054C46.5026 24.0054 45.0853 22.7968 45.0853 20.8477V20.6121C45.0853 20.6121 52.4307 20.6457 53.9792 20.6121V19.4372C53.9792 14.5358 51.8887 12.1525 47.5428 12.1525V12.1558ZM49.9026 18.1648L45.0853 18.1984L45.119 17.9964C45.1527 17.1582 45.4556 15.2091 47.6135 15.1755C49.805 15.1755 49.9059 17.0236 49.9396 17.9628L49.9059 18.1648H49.9026ZM69.4105 12.3545H73.3188V27.062H69.4105V12.3545ZM59.9747 12.4555H55.898V26.9273H59.9747C65.3978 26.9273 68.1279 24.4093 68.1279 19.6762C68.1279 14.9432 65.3978 12.4555 59.9747 12.4555ZM60.5133 24.0054H59.4024V15.3774H60.5133C63.1424 15.3774 64.5562 17.6598 64.5562 19.7099C64.5226 21.723 63.1087 24.0087 60.5133 24.0087V24.0054Z" fill="white"/>
</g>
<defs>
<clipPath id="clip0_20_2463">
<rect width="113.109" height="34" fill="white"/>
</clipPath>
</defs>
</svg>
